<svg xmlns="http://www.w3.org/2000/svg" viewBox="0 0 113.64 93.58"><title>Asset 3</title><g id="Layer_2" data-name="Layer 2"><g id="Layer_1-2" data-name="Layer 1"><path d="M27.46,15.4c-8-.46-17.44-.53-22.82,6.51-3.81,5-6.13,14.4-3.55,20.3,2.35,5.35,7.1,12.39,13.82,11.28,6.36-1,12.79-7.81,14.93-13.62.67-1.81-2.23-2.6-2.89-.8-1.67,4.53-8.19,11.66-13.53,11.57S3,41.83,3,37.09c0-5.26,1.79-11.71,5.83-15.19C13.94,17.53,21.24,18,27.46,18.4c1.93.11,1.92-2.89,0-3Z"/><path d="M31.46,18.12A419.61,419.61,0,0,0,83.36,4.28c9-3,16,5.11,18.1,13.37,1.09,4.37,1.74,10.75-3.09,13.21-3.52,1.79-10,1.09-13.89.94-1.93-.07-1.93,2.93,0,3,4.87.18,11.27.59,15.86-1.42C103.52,32,104.55,29,105,25.7A25.08,25.08,0,0,0,95.85,3.57c-2.53-2-5.57-4-8.93-3.51C81.22.82,75.28,3.83,69.76,5.5q-19.3,5.84-39.11,9.72c-1.89.38-1.09,3.27.8,2.89Z"/><path d="M49.33,39a1.5,1.5,0,0,0,0-3,1.5,1.5,0,0,0,0,3Z"/><path d="M72.14,37a1.5,1.5,0,0,0,0-3,1.5,1.5,0,0,0,0,3Z"/><path d="M25.56,43.48q-.19,16,0,31.94c.09,6.41-1.94,15.47,6,17.34s16.82.11,24.78-.94q15.06-2,29.93-5.17c5-1.06,9.89-2.2,14.79-3.47,3-.77,5.76-1.37,7.82-3.78,4.64-5.45,5.18-14.38,4.4-21.09-1.49-12.9-9.56-29.68-25.2-26.5-1.89.38-1.09,3.28.8,2.89,15.91-3.24,22.38,18.18,21.64,30.31-.22,3.54-.94,8.06-3,11.06-2.57,3.73-6.9,4.16-10.93,5.15Q86.49,83.7,76.22,85.62q-11,2.07-22.11,3.49c-3.1.39-6.2.79-9.32,1s-9.64,1.33-12.39-.3c-4.51-2.68-3.73-8-3.8-12.45q-.09-5.49-.12-11-.08-11.48.07-23a1.5,1.5,0,0,0-3,0Z"/><path d="M74.13,54.41a103.91,103.91,0,0,0,21.73-2c1.89-.38,1.09-3.27-.8-2.89a100,100,0,0,1-20.93,1.9,1.5,1.5,0,0,0,0,3Z"/><path d="M70.84,72.9a18.34,18.34,0,0,0,18-5.29c1.32-1.41-.8-3.54-2.12-2.12A15.28,15.28,0,0,1,71.63,70c-1.87-.47-2.67,2.43-.8,2.89Z"/></g></g></svg>