<svg xmlns="http://www.w3.org/2000/svg" viewBox="0 0 349.25 616.24"><defs><style>.cls-1{fill:#fff;}.cls-1,.cls-2{stroke:#000;stroke-miterlimit:10;}.cls-2{fill:none;}</style></defs><title>bunny</title><g id="Layer_2" data-name="Layer 2"><g id="Layer_1-2" data-name="Layer 1"><polygon class="cls-1" points="139.12 163.22 139.12 127.22 145.12 83.22 161.12 36.22 181.12 1.22 191.12 31.22 191.12 68.22 177.12 113.22 165.12 163.22 191.12 163.22 210.12 175.22 224.12 192.22 238.12 155.22 247.12 110.22 268.12 65.22 299.12 28.22 299.12 105.22 278.12 152.22 258.12 192.22 238.12 225.22 209.12 294.22 168.12 302.22 119.12 289.22 89.12 262.22 98.12 221.22 113.12 204.22 123.12 180.22 139.12 163.22"/><polygon class="cls-1" points="119.05 212.72 119.05 223.72 123.55 226.22 130.62 219.22 126.76 210.22 119.69 211.22 120.97 222.72 122.9 222.22 128.05 219.22 124.83 211.72 123.55 214.72 123.55 219.22 130.62 216.72 117.76 215.72 129.33 211.72 119.69 226.22 129.33 222.72 117.12 219.22 130.62 214.22 123.55 208.72 119.05 212.72"/><polygon class="cls-1" points="180.05 242.26 180.05 252 184.55 254.22 191.62 248.02 187.76 240.05 180.69 240.93 181.97 251.12 183.9 250.68 189.05 248.02 185.83 241.38 184.55 244.03 184.55 248.02 191.62 245.81 178.76 244.92 190.33 241.38 180.69 254.22 190.33 251.12 178.12 248.02 191.62 243.59 184.55 238.72 180.05 242.26"/><polygon class="cls-1" points="122.12 243.22 142.12 254.22 131.12 252.22 122.12 243.22"/><polyline class="cls-1" points="124.12 280.22 124.12 259.22 131.12 252.22"/><polygon class="cls-2" points="103.12 287.72 100.12 301.2 109.12 291.93 109.12 304.58 117.12 296.15 117.12 307.95 127.12 299.52 127.12 309.63 136.12 302.05 136.12 311.32 142.12 304.58 147.12 311.32 153.12 306.26 157.12 313.85 167.12 307.95 171.12 317.22 178.12 307.11 189.12 315.53 189.12 304.58 194.12 313 200.12 302.05 204.12 312.16 103.12 287.72"/><polyline class="cls-2" points="99.68 296.76 124.2 290.74 126.37 295.34 102.12 297.19 116.69 299.41 118.87 299.74 127.73 293.46 131.73 299.15 131 314.19 138.26 357.53 105.05 347.23 99.12 306.13 95.41 294.22 98.63 289.33 107.52 343.54 106.01 301.36 114.37 344.94 109.8 301.97 121.18 350.44 111.76 301.49 125.95 350.81 117.97 305.6 130.47 352.26 123.61 304.22"/><polyline class="cls-2" points="174.68 309.76 199.2 303.74 201.37 308.34 177.12 310.19 191.69 312.41 193.87 312.74 202.73 306.46 206.73 312.15 206 327.19 213.26 370.53 180.05 360.23 174.12 319.13 170.41 307.22 173.63 302.33 182.52 356.54 181.01 314.36 189.37 357.94 184.8 314.97 196.18 363.44 186.76 314.49 200.95 363.81 192.97 318.6 205.47 365.26 198.61 317.22"/><polyline class="cls-2" points="139.68 309.76 164.2 303.74 166.37 308.34 142.12 310.19 156.69 312.41 158.87 312.74 167.73 306.46 171.73 312.15 171 327.19 178.26 370.53 145.05 360.23 139.12 319.13 135.41 307.22 138.63 302.33 147.52 356.54 146.01 314.36 154.37 357.94 149.8 314.97 161.18 363.44 151.76 314.49 165.95 363.81 157.97 318.6 170.47 365.26 163.61 317.22"/><polyline class="cls-2" points="92.12 309.22 79.12 354.22 75.12 429.22 84.12 445.22 89.12 432.22 92.12 445.22 100.12 433.22 104.12 445.22 108.12 427.22 100.12 410.22 95.12 367.22 95.12 320.22"/><polyline class="cls-2" points="204.12 327.22 219.12 400.22 212.12 434.22 219.12 428.22 219.12 445.22 230.12 442.22 234.12 424.22 234.12 405.22 219.12 309.22 199.12 302.22 208.42 382.33 216.39 450.93 192.12 370.22 122.12 350.22 95.12 479.22 131.12 493.22 147.12 419.22 199.12 484.22 213.12 477.22 213.12 465.22 213.12 556.22 234.12 541.22 221.12 466.22 204.12 552.22 185.12 547.22 204.12 452.22 165.12 548.22 165.12 459.22 132.12 551.22 95.12 514.22 66.12 534.22 108.12 542.22 253.12 545.22 178.12 407.22 66.12 511.22 127.12 510.22 178.12 437.22 127.12 370.22 91.12 526.22 185.12 388.22 247.12 507.22 213.12 581.22"/><polyline class="cls-2" points="204.44 332.58 251.35 390.5 260.78 423.9 264.23 415.36 272.06 430.45 280.44 422.72 275.71 404.9 266.97 388.03 209.48 309.7 188.5 312.69 233.62 379.53 272.26 436.78 213.57 376.28 142.22 390.74 177.61 517.69 216.01 513.56 196.17 440.49 272.24 474.28 281.45 461.62 275.93 450.97 317.8 531.76 329.55 508.78 283.49 448.17 307.97 532.35 288.8 536.65 261.96 443.56 271.51 546.74 230.55 467.73 243.59 564.59 193.71 548.77 177.17 579.87 218.14 567.64 348.26 503.59 218.17 415.58 166.59 559.45 220.28 530.49 231.97 442.21 155.86 406.19 195.68 561.26 215.64 395.49 325.44 472.61 329.31 553.96"/><polyline class="cls-2" points="196.03 371.34 187.97 445.43 170.89 475.65 179.39 472.08 174.19 488.27 185.58 488.78 194.9 472.87 200.72 454.78 215.82 358.8 198.93 346.01 183.26 425.12 169.84 492.87 171.45 408.6 110.93 368.13 45.73 482.67 75.72 507.02 113.61 441.47 143.21 519.27 158.68 516.89 162.35 505.47 134.5 592.1 159.08 584.25 169.66 508.87 127.15 585.54 110.6 574.96 157.77 490.34 91.25 569.79 118.5 485.06 58.92 562.54 35.02 515.99 1.29 526.15 38.82 546.63 175.94 593.87 146.79 439.54 8.33 504.26 66.71 521.98 137.61 468.1 109.57 388.7 27.54 526.19 159.27 423.59 181.87 555.86 126.84 615.9"/></g></g></svg>