<svg xmlns="http://www.w3.org/2000/svg" viewBox="0 0 432.75 363.04"><defs><style>.cls-1{fill:none;stroke:#000;stroke-miterlimit:10;}</style></defs><title>cat</title><g id="Layer_2" data-name="Layer 2"><g id="Layer_1-2" data-name="Layer 1"><polygon class="cls-1" points="12.84 39.29 19.84 91.29 19.84 121.29 28.84 161.29 86.84 187.29 174.84 135.29 174.84 97.29 154.84 71.29 136.84 8.29 114.84 35.29 100.84 54.29 50.84 57.29 12.84 39.29"/><polyline class="cls-1" points="199.29 230.7 202.31 248.78 202.06 320.57 196.75 342.32 189.93 355.79 195.02 362.5 205.62 360.81 212.88 353.13 213.17 342.54 219.03 322.04 219.17 243.58"/><polyline class="cls-1" points="276.3 223.7 279.31 241.78 279.06 313.57 273.75 335.32 266.93 348.79 272.02 355.5 282.62 353.81 289.88 346.13 290.17 335.54 296.03 315.04 296.17 236.58"/><polyline class="cls-1" points="359.37 132.08 371 146.25 406.6 208.59 412.85 230.09 413.65 245.17 421.41 248.45 429.76 241.69 432.22 231.41 427.19 222.09 422.04 201.4 383.02 133.33"/><polyline class="cls-1" points="132.58 234.1 129.55 252.18 105.99 319.99 93.91 338.84 83.07 349.36 85.71 357.36 96.29 359.2 105.65 354.3 109.36 344.38 121.56 326.89 147.19 252.74"/><polyline class="cls-1" points="115.13 170.57 146.84 223.29 235.84 213.29 321.73 190.5 333.52 204.53 369.86 266.45 376.37 287.88 377.34 302.94 385.14 306.13 393.41 299.27 395.74 288.96 390.61 279.7 385.21 259.08 345.39 191.47"/><polyline class="cls-1" points="359.84 97.29 315.84 53.29 204.84 1.29 330.84 26.29 343.84 57.29 295.84 90.29 295.84 111.29 174.84 132.29"/><polyline class="cls-1" points="330.84 84.29 385.84 121.29 295.84 216.29 189.84 238.29 100.84 222.81 45.97 278.9 27.47 289.5 19.87 296.87 9.31 297.31 0.53 291.12 1.57 282.76 15.86 277.88 34.84 266 85.13 214.77 95.59 199.72"/><line class="cls-1" x1="53.84" y1="148.29" x2="82.84" y2="148.29"/></g></g></svg>