<svg xmlns="http://www.w3.org/2000/svg" viewBox="0 0 117.52 229.69"><defs><style>.cls-1{fill:none;stroke:#000;stroke-miterlimit:10;}</style></defs><title>coolkid2</title><g id="Layer_2" data-name="Layer 2"><g id="Layer_1-2" data-name="Layer 1"><polygon class="cls-1" points="115.59 71.55 72.59 98.55 84.59 104.55 67.59 122.55 66.59 138.55 74.59 229.55 52.59 151.55 40.59 224.55 18.59 162.55 0.59 147.55 8.59 126.55 25.59 119.55 11.59 96.55 25.59 85.55 44.59 75.55 47.59 69.55 25.59 46.55 25.59 27.55 44.59 0.55 64.59 4.55 77.59 17.55 78.59 47.55 67.59 77.55 82.59 73.55 115.59 71.55"/><polyline class="cls-1" points="35.59 90.55 64.59 90.55 21.19 112.32"/><polyline class="cls-1" points="58.59 30.55 61.59 34.55 62.59 35.55 66.59 35.55 69.59 34.55 70.59 29.55"/><polyline class="cls-1" points="44.59 46.55 48.59 48.55 52.59 48.55 59.59 46.55"/></g></g></svg>