<svg xmlns="http://www.w3.org/2000/svg" viewBox="0 0 268.48 72.87"><defs><style>.cls-1{fill:none;stroke:#000;stroke-miterlimit:10;stroke-width:4px;}</style></defs><title>marybeth</title><g id="Layer_2" data-name="Layer 2"><g id="Layer_1-2" data-name="Layer 1"><polyline class="cls-1" points="1.98 64.19 8.37 18.64 14.75 52.26 27.52 14.31 31.17 64.19"/><polyline class="cls-1" points="41.2 64.19 46.67 14.31 58.53 64.19"/><polyline class="cls-1" points="37.55 39.25 58.53 39.25 64.91 14.31 67.65 64.19 70.39 14.31 82.24 8.88 94.1 37.08 73.12 39.25 94.1 71.78"/><polyline class="cls-1" points="99.57 14.31 110.52 39.25 122.37 8.88 103.22 67.44"/><polygon class="cls-1" points="147 8.88 147 67.44 179.83 64.19 179.83 40.33 155.21 40.33 179.83 19.73 174.36 2.38 147 8.88"/><polyline class="cls-1" points="192.6 40.33 212.67 24.07 202.64 14.31 187.13 20.81 187.13 45.76 195.34 59.85 212.67 46.84"/><line class="cls-1" x1="224.53" y1="8.88" x2="224.53" y2="59.85"/><polyline class="cls-1" points="212.67 8.88 240.94 8.88 240.94 59.85 243.68 34.91 262.83 34.91 262.83 8.88 266.48 59.85"/></g></g></svg>