<svg xmlns="http://www.w3.org/2000/svg" viewBox="0 0 470.05 443.82"><defs><style>.cls-1{fill:none;stroke:#000;stroke-miterlimit:10;}</style></defs><title>noussommes</title><g id="Layer_2" data-name="Layer 2"><g id="Layer_1-2" data-name="Layer 1"><polyline class="cls-1" points="21.05 76.29 21.05 2.29 55.05 76.29 64.05 2.29"/><polygon class="cls-1" points="90.55 34.79 77.55 49.79 77.55 62.79 82.55 75.79 90.55 75.79 104.55 69.79 106.55 55.79 102.55 38.79 90.55 34.79"/><polyline class="cls-1" points="112.55 36.79 112.55 65.79 112.55 71.79 120.55 75.79 136.55 75.79 140.55 62.79 140.55 49.79 137.55 34.79"/><polyline class="cls-1" points="173.55 36.79 164.55 34.79 154.55 34.79 149.55 46.79 173.55 60.79 173.55 69.79 170.55 75.79 161.55 75.79 149.55 75.79 149.55 67.79"/><polyline class="cls-1" points="241.55 38.79 230.55 34.79 216.55 36.79 213.55 45.79 218.55 51.79 234.55 57.79 241.55 71.79 236.55 78.79 223.55 78.79 207.55 69.79"/><polygon class="cls-1" points="261.55 38.79 253.55 41.79 250.55 51.79 250.55 70.79 256.55 78.79 268.55 80.79 280.55 71.79 277.55 38.79 261.55 38.79"/><polyline class="cls-1" points="284.55 34.79 284.55 80.79 291.55 34.79 303.55 34.79 309.55 80.79 315.55 34.79 329.55 39.79 329.55 80.79"/><polyline class="cls-1" points="343.55 80.79 343.55 34.79 357.55 42.79 361.55 80.79 367.55 38.79 378.55 34.79 378.55 86.79"/><polyline class="cls-1" points="396.55 59.79 426.55 46.79 420.55 38.79 411.55 38.79 390.55 39.79 390.55 63.79 399.55 80.79 433.55 65.79"/><polyline class="cls-1" points="469.55 44.79 464.55 34.79 454.55 30.79 443.55 30.79 435.55 37.79 435.55 46.79 466.55 60.79 469.55 70.79 469.55 77.79 463.55 84.79 455.55 86.79 442.55 85.79 431.55 78.79"/><polyline class="cls-1" points="21.55 105.79 21.55 181.79 29.55 191.79 48.55 191.79 62.55 177.79"/><line class="cls-1" x1="7.55" y1="137.79" x2="36.55" y2="128.79"/><polygon class="cls-1" points="81.55 142.79 72.55 145.79 69.55 154.79 69.55 171.79 75.55 188.79 92.55 193.79 104.55 187.79 112.55 171.79 110.55 156.79 100.55 144.79 81.55 142.79"/><polyline class="cls-1" points="120.55 144.79 120.55 186.79 126.55 193.79 135.55 195.79 149.55 191.79 152.55 144.79"/><polyline class="cls-1" points="182.55 151.79 177.55 144.79 166.55 144.79 161.55 151.79 161.55 164.79 182.55 176.79 182.55 187.79 178.55 195.79 169.55 198.79 159.55 193.79"/><line class="cls-1" x1="9.55" y1="208.79" x2="195.55" y2="208.79"/><polyline class="cls-1" points="265.55 166.79 258.55 158.79 247.55 158.79 241.55 180.79 250.55 193.79 265.55 193.79 273.55 116.79"/><polyline class="cls-1" points="280.55 181.79 299.55 173.79 295.55 167.79 288.55 164.79 282.55 167.79 277.55 172.79 277.55 189.79 290.55 198.79 299.55 188.79"/><polyline class="cls-1" points="323.55 171.79 319.55 164.79 309.55 164.79 304.55 173.79 308.55 181.79 323.55 186.79 325.55 195.79 323.55 200.79 312.55 203.79 304.55 198.79"/><polyline class="cls-1" points="42.55 255.79 31.55 236.79 17.55 236.79 0.55 259.79 7.55 285.79 21.55 288.79 42.55 283.79 42.55 242.79 51.55 288.79"/><line class="cls-1" x1="62.55" y1="216.79" x2="62.55" y2="292.79"/><polyline class="cls-1" points="102.55 254.79 95.55 247.79 81.55 247.79 72.55 259.79 72.55 283.79 83.55 292.79 98.55 292.79 106.55 244.79 106.55 343.79 90.55 351.79 74.55 351.79 63.55 331.79"/><polygon class="cls-1" points="132.55 244.79 120.55 250.79 112.55 265.79 116.55 288.79 129.55 298.79 146.55 292.79 152.55 283.79 152.55 257.79 149.55 251.79 140.55 248.79 132.55 244.79"/><polyline class="cls-1" points="164.55 244.79 164.55 294.79 170.55 251.79 178.55 244.79 188.55 244.79 198.55 251.79 198.55 259.79"/><line class="cls-1" x1="211.55" y1="244.79" x2="211.55" y2="294.79"/><polygon class="cls-1" points="211.55 228.79 211.55 216.79 218.55 225.79 203.55 222.79 218.55 216.79 211.55 228.79"/><polyline class="cls-1" points="235.55 216.79 235.55 294.79 247.55 302.79 257.55 292.79"/><line class="cls-1" x1="221.55" y1="244.79" x2="250.55" y2="239.79"/><polyline class="cls-1" points="269.55 216.79 269.55 298.79 277.55 254.79 288.55 254.79 296.55 259.79 299.55 283.79 299.55 302.79"/><polyline class="cls-1" points="311.55 292.79 314.55 259.79 325.55 247.79 337.55 292.79 343.55 247.79 351.55 247.79 356.55 271.79 351.55 294.79"/><polyline class="cls-1" points="373.55 279.79 402.55 262.79 396.55 254.79 387.55 250.79 369.55 250.79 364.55 265.79 364.55 279.79 376.55 292.79 390.55 292.79 402.55 275.79"/><polyline class="cls-1" points="446.55 247.79 438.55 242.79 418.55 242.79 411.55 254.79 416.55 262.79 438.55 271.79 446.55 282.79 442.55 294.79 428.55 294.79 411.55 292.79 407.55 284.79"/><polyline class="cls-1" points="120.3 381.55 113.89 377.62 102.15 381.55 102.15 388.84 118.16 398.37 120.3 402.29 118.16 407.9 111.22 411.82 100.55 405.66"/><polyline class="cls-1" points="127.77 370.89 127.77 407.9 135.24 411.82 145.39 407.34"/><line class="cls-1" x1="122.43" y1="388.28" x2="136.85" y2="386.59"/><polyline class="cls-1" points="146.99 383.79 151.26 400.05 157.66 411.82 167.27 411.82 172.08 406.78 175.81 380.43"/><polyline class="cls-1" points="185.42 382.11 185.42 443.79 189.69 382.11 204.11 380.43 204.11 391.08 204.11 399.49 192.9 400.61"/><line class="cls-1" x1="214.25" y1="380.43" x2="214.25" y2="403.98"/><polyline class="cls-1" points="240.94 386.59 235.07 377.62 227.06 380.43 224.39 388.27 224.39 399.49 235.07 403.98 242.54 402.29 240.94 365.29"/><polyline class="cls-1" points="252.69 392.76 260.16 388.27 256.42 384.35 250.02 384.35 250.02 388.27 247.88 399.49 255.89 399.49 260.16 399.49"/><polyline class="cls-1" points="282.05 387.15 277.77 380.43 269.77 380.43 269.77 387.15 278.31 391.64 279.38 399.49 274.04 403.98 266.03 399.49 264.43 394.44"/><polygon class="cls-1" points="211.55 374.79 209.55 368.79 214.55 368.79 217.55 372.79 211.55 374.79"/></g></g></svg>