<svg xmlns="http://www.w3.org/2000/svg" viewBox="0 0 380.18 194.28"><defs><style>.cls-1{fill:#fff;}.cls-1,.cls-2{stroke:#000;stroke-miterlimit:10;}.cls-2{fill:none;}</style></defs><title>pupdog</title><g id="Layer_2" data-name="Layer 2"><g id="Layer_1-2" data-name="Layer 1"><polygon class="cls-1" points="24.5 7.5 10.5 26.5 0.5 51.5 0.5 63.5 12.5 63.5 7.5 86.5 12.5 97.5 28.5 101.5 38.5 88.5 44.5 105.5 63.5 105.5 77.5 99.5 90.5 82.5 105.5 77.5 124.5 65.5 119.5 35.5 97.5 0.5 85.5 0.5 78.5 5.5 36.5 5.5 24.5 7.5"/><polyline class="cls-1" points="36.5 49.5 23.5 49.5 23.5 61.5 37.5 61.5 27.5 53.5 25.5 58.5 31.5 59.5 28.5 56.5"/><line class="cls-1" x1="58.5" y1="53.5" x2="74.5" y2="53.5"/><polygon class="cls-1" points="36.5 76.5 32.5 82.5 36.5 88.5 45.5 82.5 36.5 76.5"/><polyline class="cls-2" points="45.5 105.5 54.39 189.5 67.74 143.5 174.47 142.5 174.47 192.5 205.6 141.5 378 142.5 221.16 65.5 124.5 65.5"/><polyline class="cls-1" points="71.5 53.5 58.5 53.5 58.5 65.5 72.5 65.5 62.5 57.5 60.5 62.5 66.5 63.5 63.5 60.5"/></g></g></svg>