<svg xmlns="http://www.w3.org/2000/svg" viewBox="0 0 354.06 214.82"><defs><style>.cls-1{fill:none;stroke:#000;stroke-miterlimit:10;}</style></defs><title>pupdog3</title><g id="Layer_2" data-name="Layer 2"><g id="Layer_1-2" data-name="Layer 1"><polygon class="cls-1" points="24.5 28.04 10.5 47.04 0.5 72.04 0.5 84.04 12.5 84.04 7.5 107.04 12.5 118.04 28.5 122.04 38.5 109.04 44.5 126.04 63.5 126.04 77.5 120.04 90.5 103.04 105.5 98.04 124.5 86.04 119.5 56.04 97.5 21.04 85.5 21.04 78.5 26.04 36.5 26.04 24.5 28.04"/><polyline class="cls-1" points="36.5 70.04 23.5 70.04 23.5 82.04 37.5 82.04 27.5 74.04 25.5 79.04 31.5 80.04 28.5 77.04"/><line class="cls-1" x1="58.5" y1="74.04" x2="74.5" y2="74.04"/><polygon class="cls-1" points="36.5 97.04 32.5 103.04 36.5 109.04 45.5 103.04 36.5 97.04"/><polyline class="cls-1" points="45.5 126.04 54.39 210.04 67.74 164.04 174.47 163.04 174.47 213.04 205.6 162.04 342.5 107.04 221.16 86.04 124.5 86.04"/><polyline class="cls-1" points="71.5 74.04 58.5 74.04 58.5 86.04 72.5 86.04 62.5 78.04 60.5 83.04 66.5 84.04 63.5 81.04"/><polyline class="cls-1" points="101.5 124.04 136.5 106.04 62.5 154.04 174.5 93.04 96.5 150.04 189.5 91.04 120.5 154.04 211.5 93.04 149.5 154.04 226.5 97.04 171.5 154.04 237.5 103.04 186.5 157.04 246.5 110.04 211.5 152.04 255.5 114.04 225.5 155.04 266.5 117.04 240.5 154.04 282.5 124.04 256.5 153.04 293.5 131.04 272.5 106.04 238.5 124.04"/><polyline class="cls-1" points="308.5 111.04 353.5 74.04 339.5 12.04 291.5 5.04 262.5 1.04 311.5 21.04 267.5 21.04 301.5 32.04 329.5 30.04 309.5 12.04 328.5 16.04 331.5 26.04 338.5 47.04 318.5 35.04 329.5 35.04 327.5 51.04 282.5 36.04 314.5 52.04 293.5 66.04 316.5 66.04 336.77 56.04 342.5 56.04 342.5 67.04 337.5 64.04 320.5 56.04 330.5 66.04 338.5 74.04 346.5 72.04 348.5 12.04 329.5 76.04 310.5 75.04 333.5 82.04 324.5 95.04 336.5 96.04 327.5 186.04 312.5 137.04 272.5 186.04 279.5 105.04 196.5 114.04 149.5 95.04 188.5 168.04 298.5 109.04"/></g></g></svg>