<svg xmlns="http://www.w3.org/2000/svg" viewBox="0 0 232.53 197.41"><defs><style>.cls-1{fill:#fff;}.cls-1,.cls-2{stroke:#000;stroke-miterlimit:10;}.cls-2{fill:none;}</style></defs><title>pupperfect</title><g id="Layer_2" data-name="Layer 2"><g id="Layer_1-2" data-name="Layer 1"><polygon class="cls-1" points="24.5 7.5 10.5 26.5 0.5 51.5 0.5 63.5 12.5 63.5 7.5 86.5 12.5 97.5 28.5 101.5 38.5 88.5 44.5 105.5 63.5 105.5 77.5 99.5 90.5 82.5 105.5 77.5 124.5 65.5 119.5 35.5 97.5 0.5 85.5 0.5 78.5 5.5 36.5 5.5 24.5 7.5"/><line class="cls-1" x1="23.5" y1="49.5" x2="36.5" y2="49.5"/><line class="cls-1" x1="58.5" y1="53.5" x2="74.5" y2="53.5"/><polygon class="cls-1" points="36.5 76.5 32.5 82.5 36.5 88.5 45.5 82.5 36.5 76.5"/><polyline class="cls-2" points="45.5 105.5 48.5 189.5 52.99 143.5 88.94 142.5 88.94 192.5 99.43 141.5 180.32 138.5 178.07 192.5 192.3 138.5 221.51 134.5 221.51 187.5 232 123.5 226.01 57.5 232 30.5 226.01 19.5 223.76 8.5 215.52 0.5 204.29 0.5 199.79 18.5 195.3 37.5 205.78 22.5 205.78 29.5 211.03 26.5 208.78 37.5 222.26 39.5 220.76 49.5 215.52 60.5 104.67 65.5"/><polyline class="cls-2" points="58.5 111.5 66.5 133.5 77.5 100.5 93.5 133.5 93.5 88.5 107.5 130.5 110.5 84.5 118.5 127.5 124.5 71.5 134.5 133.5 138.5 71.5 147.5 133.5 152.5 71.5 166.5 133.5 166.5 71.5 179.5 133.5 179.5 71.5 191.5 128.5 194.5 71.5 206.5 123.5 210.5 71.5 224.5 117.5"/></g></g></svg>