<svg xmlns="http://www.w3.org/2000/svg" viewBox="0 0 680.77 696.81"><defs><style>.cls-1{fill:none;stroke:#000;stroke-miterlimit:10;}</style></defs><title>title_1</title><g id="Layer_2" data-name="Layer 2"><g id="Layer_1-2" data-name="Layer 1"><polyline class="cls-1" points="10.54 6.5 70.54 3.5 130.54 0.5"/><polyline class="cls-1" points="10.54 86.5 18.54 110.5 43.54 116.5 70.54 99.5 70.54 2.5"/><polygon class="cls-1" points="104.54 82.5 150.54 59.5 130.54 46.5 112.54 46.5 104.54 59.5 104.54 82.5"/><polyline class="cls-1" points="150.54 92.5 140.54 103.5 111.54 103.5 104.54 82.5"/><polyline class="cls-1" points="260.54 53.5 235.54 39.5 213.54 59.5 226.54 72.5 244.54 72.5 260.54 92.5 252.54 116.5 225.54 109.5 213.54 92.5"/><path class="cls-1" d="M291.54,86.5"/><polyline class="cls-1" points="287.54 54.5 291.54 86.5 298.54 108.5 320.54 116.5 345.54 103.5 345.54 82.5 338.54 46.5"/><line class="cls-1" x1="373.54" y1="46.5" x2="373.54" y2="116.5"/><line class="cls-1" x1="373.54" y1="0.5" x2="373.54" y2="21.5"/><polyline class="cls-1" points="466.54 46.5 466.54 92.5 476.54 123.5 515.54 116.5 527.54 46.5"/><polyline class="cls-1" points="544.54 46.5 544.54 64.5 544.54 116.5 563.54 50.5 597.54 46.5 612.54 71.5 605.54 123.5"/><polygon class="cls-1" points="61.54 174.5 10.54 188.5 0.54 234.5 30.54 270.5 81.54 270.5 61.54 174.5"/><polyline class="cls-1" points="120.54 263.5 85.54 244.5 71.54 222.5"/><line class="cls-1" x1="137.54" y1="167.5" x2="137.54" y2="270.5"/><polygon class="cls-1" points="213.54 218.5 202.54 191.5 176.54 191.5 150.54 204.5 150.54 238.5 156.54 263.5 170.54 270.5 198.54 270.5 213.54 257.5 213.54 218.5"/><polyline class="cls-1" points="189.24 269.78 213.54 257.5 213.54 277.5 213.54 314.5 191.54 338.5 157.54 338.5 137.54 297.5"/><polygon class="cls-1" points="270.54 198.5 251.54 191.5 227.54 191.5 219.54 204.5 224.54 257.5 236.54 263.5 270.54 263.5 280.54 242.5 270.54 198.5"/><line class="cls-1" x1="291.54" y1="191.5" x2="291.54" y2="270.5"/><polyline class="cls-1" points="337.54 208.5 329.54 197.5 311.54 197.5 287.54 218.5"/><line class="cls-1" x1="359.54" y1="197.5" x2="359.54" y2="270.5"/><line class="cls-1" x1="359.54" y1="154.5" x2="359.54" y2="174.5"/><line class="cls-1" x1="405.54" y1="164.5" x2="405.54" y2="270.5"/><line class="cls-1" x1="387.54" y1="207.5" x2="429.54" y2="207.5"/><polyline class="cls-1" points="443.54 164.5 443.54 222.5 443.54 280.5 454.54 207.5 466.54 197.5 482.54 197.5 492.54 207.5 492.54 285.5"/><polyline class="cls-1" points="515.54 207.5 515.54 270.5 522.54 217.5 535.54 207.5 558.54 279.5 578.54 207.5 592.54 207.5 602.54 285.5"/><polyline class="cls-1" points="627.54 242.5 672.54 212.5 650.54 197.5 634.54 197.5 618.54 207.5 612.54 227.5 623.54 263.5 655.54 270.5 680.54 257.5"/><polyline class="cls-1" points="130.54 363.5 114.54 338.5 71.54 328.5 48.54 345.5 40.54 370.5 49.54 394.5 71.54 412.5 127.54 424.5 137.54 445.5 137.54 467.5 120.54 482.5 96.54 482.5 27.54 457.5"/><line class="cls-1" x1="175.54" y1="362.5" x2="175.54" y2="482.5"/><line class="cls-1" x1="150.54" y1="405.5" x2="192.54" y2="405.5"/><polyline class="cls-1" points="231.54 405.5 231.54 438.5 243.54 482.5 260.54 482.5 291.54 477.5 302.54 453.5 302.54 405.5"/><polyline class="cls-1" points="334.54 465.5 369.54 471.5 396.54 457.5 405.54 433.5 387.54 397.5 365.54 393.5 345.54 399.5 341.01 455.3 340.15 465.84 339.28 476.5 332.54 559.5 332.54 399.5"/><line class="cls-1" x1="429.54" y1="393.5" x2="429.54" y2="482.5"/><line class="cls-1" x1="429.54" y1="338.5" x2="429.54" y2="362.5"/><polyline class="cls-1" points="516.54 405.5 497.54 393.5 478.54 393.5 457.54 399.5 449.54 431.5 449.54 467.5 483.54 486.5 527.54 476.5 527.54 298.5"/><polyline class="cls-1" points="573.54 438.5 637.54 393.5 621.54 382.5 591.54 382.5 564.54 397.5 559.54 415.5 566.54 448.5 590.54 471.5 618.54 471.5 653.54 438.5"/><polyline class="cls-1" points="80.54 659.23 89.96 657.66 95.72 660.8 95.72 669.18 83.68 670.75 83.68 660.3 83.68 637.25"/><polyline class="cls-1" points="97.81 654 105.67 668.13 114.04 654 90.49 687.5"/><polyline class="cls-1" points="143.54 689.5 150.54 647.5 157.54 678.5 171.54 643.5 175.54 689.5"/><polyline class="cls-1" points="186.54 689.5 192.54 643.5 205.54 689.5"/><polyline class="cls-1" points="182.54 666.5 205.54 666.5 212.54 643.5 215.54 689.5 218.54 643.5 231.54 638.5 244.54 664.5 221.54 666.5 244.54 696.5"/><polyline class="cls-1" points="250.54 643.5 262.54 666.5 275.54 638.5 254.54 692.5"/><polygon class="cls-1" points="302.54 638.5 302.54 692.5 338.54 689.5 338.54 667.5 311.54 667.5 338.54 648.5 332.54 632.5 302.54 638.5"/><polyline class="cls-1" points="352.54 667.5 374.54 652.5 363.54 643.5 346.54 649.5 346.54 672.5 355.54 685.5 374.54 673.5"/><line class="cls-1" x1="387.54" y1="638.5" x2="387.54" y2="685.5"/><polyline class="cls-1" points="374.54 638.5 405.54 638.5 405.54 685.5 408.54 662.5 429.54 662.5 429.54 638.5 433.54 685.5"/><polyline class="cls-1" points="468.54 643.5 463.54 692.5 482.54 643.5 469.54 665.5 493.54 696.5"/><polyline class="cls-1" points="493.54 667.5 509.54 650.5 493.54 650.5 488.54 662.5 488.54 673.5 498.54 685.5 516.54 670.5"/><polyline class="cls-1" points="555.54 643.5 569.54 670.5 577.54 643.5 559.54 692.5 531.54 662.5 547.54 650.5 543.54 643.5 530.54 643.5 524.54 685.5 524.54 643.5"/></g></g></svg>