<svg xmlns="http://www.w3.org/2000/svg" viewBox="0 0 684.12 768.71"><defs><style>.cls-1{fill:none;stroke:#000;stroke-miterlimit:10;}</style></defs><title>title_no</title><g id="Layer_2" data-name="Layer 2"><g id="Layer_1-2" data-name="Layer 1"><polyline class="cls-1" points="14.11 16.88 74.11 16.75 134.11 16.63"/><polyline class="cls-1" points="14.11 83.13 22.11 84.14 47.11 84.4 74.11 83.68 74.11 79.56"/><polygon class="cls-1" points="108.11 33.82 154.11 32.85 134.11 32.3 116.11 32.3 108.11 32.85 108.11 33.82"/><polyline class="cls-1" points="154.11 65.65 144.11 66.12 115.11 66.12 108.11 65.23"/><polyline class="cls-1" points="264.11 97.25 239.11 96.66 217.11 97.5 230.11 98.05 248.11 98.05 264.11 98.9 256.11 99.92 229.11 99.62 217.11 98.9"/><path class="cls-1" d="M295.11,49.37"/><polyline class="cls-1" points="291.11 113.45 295.11 114.81 302.11 115.74 324.11 116.08 349.11 115.53 349.11 114.64 342.11 113.11"/><line class="cls-1" x1="377.11" y1="129.42" x2="377.11" y2="132.38"/><line class="cls-1" x1="377.11" x2="377.11" y2="0.89"/><polyline class="cls-1" points="470.11 145.58 470.11 147.53 480.11 148.84 519.11 148.54 531.11 145.58"/><polyline class="cls-1" points="548.11 161.88 548.11 162.65 548.11 164.85 567.11 162.05 601.11 161.88 616.11 162.94 609.11 165.15"/><polygon class="cls-1" points="65.11 259.32 14.11 259.92 4.11 261.87 34.11 263.39 85.11 263.39 65.11 259.32"/><polyline class="cls-1" points="124.11 229.61 89.11 228.81 75.11 227.88"/><line class="cls-1" x1="141.11" y1="275.48" x2="141.11" y2="279.85"/><polygon class="cls-1" points="217.11 293.44 206.11 292.3 180.11 292.3 154.11 292.85 154.11 294.29 160.11 295.35 174.11 295.65 202.11 295.65 217.11 295.1 217.11 293.44"/><polyline class="cls-1" points="192.81 406.93 217.11 406.4 217.11 407.25 217.11 408.82 195.11 409.84 161.11 409.84 141.11 408.1"/><polygon class="cls-1" points="274.11 243.82 255.11 243.53 231.11 243.53 223.11 244.08 228.11 246.32 240.11 246.58 274.11 246.58 284.11 245.69 274.11 243.82"/><line class="cls-1" x1="295.11" y1="308.6" x2="295.11" y2="311.95"/><polyline class="cls-1" points="341.11 212.46 333.11 211.99 315.11 211.99 291.11 212.88"/><line class="cls-1" x1="363.11" y1="325.04" x2="363.11" y2="328.13"/><line class="cls-1" x1="363.11" y1="179.4" x2="363.11" y2="180.25"/><line class="cls-1" x1="409.11" y1="340.65" x2="409.11" y2="345.14"/><line class="cls-1" x1="391.11" y1="196.13" x2="433.11" y2="196.13"/><polyline class="cls-1" points="447.11 372.94 447.11 375.4 447.11 377.86 458.11 374.77 470.11 374.34 486.11 374.34 496.11 374.77 496.11 378.07"/><polyline class="cls-1" points="519.11 390.16 519.11 392.83 526.11 390.58 539.11 390.16 562.11 393.21 582.11 390.16 596.11 390.16 606.11 393.47"/><polyline class="cls-1" points="631.11 359.56 676.11 358.29 654.11 357.65 638.11 357.65 622.11 358.08 616.11 358.93 627.11 360.45 659.11 360.75 684.11 360.2"/><polyline class="cls-1" points="134.11 471.57 118.11 470.51 75.11 470.09 52.11 470.81 44.11 471.87 53.11 472.88 75.11 473.65 131.11 474.15 141.11 475.05 141.11 475.98 124.11 476.61 100.11 476.61 31.11 475.55"/><line class="cls-1" x1="179.11" y1="487.11" x2="179.11" y2="492.2"/><line class="cls-1" x1="154.11" y1="440.74" x2="196.11" y2="440.74"/><polyline class="cls-1" points="235.11 504.33 235.11 505.73 247.11 507.6 264.11 507.6 295.11 507.38 306.11 506.37 306.11 504.33"/><polyline class="cls-1" points="338.11 554.42 373.11 554.67 400.11 554.08 409.11 553.06 391.11 551.54 369.11 551.37 349.11 551.62 344.57 553.99 343.72 554.43 342.85 554.88 336.11 558.4 336.11 551.62"/><line class="cls-1" x1="433.11" y1="520.38" x2="433.11" y2="524.16"/><line class="cls-1" x1="433.11" y1="423.92" x2="433.11" y2="424.94"/><polyline class="cls-1" points="520.11 539.13 501.11 538.62 482.11 538.62 461.11 538.88 453.11 540.23 453.11 541.76 487.11 542.56 531.11 542.14 531.11 534.59"/><polyline class="cls-1" points="577.11 457.53 641.11 455.62 625.11 455.16 595.11 455.16 568.11 455.79 563.11 456.56 570.11 457.95 594.11 458.93 622.11 458.93 657.11 457.53"/><polyline class="cls-1" points="84.11 571.41 93.53 571.35 99.29 571.48 99.29 571.84 87.25 571.9 87.25 571.46 87.25 570.48"/><polyline class="cls-1" points="101.38 652.02 109.23 652.62 117.61 652.02 94.05 653.44"/><polyline class="cls-1" points="147.11 670.01 154.11 668.23 161.11 669.54 175.11 668.06 179.11 670.01"/><polyline class="cls-1" points="190.11 686.32 196.11 684.37 209.11 686.32"/><polyline class="cls-1" points="186.11 750.53 209.11 750.53 216.11 749.55 219.11 751.5 222.11 749.55 235.11 749.34 248.11 750.44 225.11 750.53 248.11 751.8"/><polyline class="cls-1" points="254.11 700.72 266.11 701.69 279.11 700.5 258.11 702.79"/><polygon class="cls-1" points="306.11 716.94 306.11 719.23 342.11 719.1 342.11 718.17 315.11 718.17 342.11 717.36 336.11 716.68 306.11 716.94"/><polyline class="cls-1" points="356.11 587.63 378.11 586.99 367.11 586.61 350.11 586.86 350.11 587.84 359.11 588.39 378.11 587.88"/><line class="cls-1" x1="391.11" y1="602.81" x2="391.11" y2="604.8"/><polyline class="cls-1" points="378.11 619.12 409.11 619.12 409.11 621.11 412.11 620.13 433.11 620.13 433.11 619.12 437.11 621.11"/><polyline class="cls-1" points="472.11 765.75 467.11 767.83 486.11 765.75 473.11 766.69 497.11 768"/><polyline class="cls-1" points="497.11 636.4 513.11 635.68 497.11 635.68 492.11 636.19 492.11 636.65 502.11 637.16 520.11 636.53"/><polyline class="cls-1" points="559.11 733.22 573.11 734.37 581.11 733.22 563.11 735.3 535.11 734.03 551.11 733.52 547.11 733.22 534.11 733.22 528.11 735 528.11 733.22"/></g></g></svg>