<svg xmlns="http://www.w3.org/2000/svg" viewBox="0 0 680.77 560.54"><defs><style>.cls-1{fill:none;stroke:#000;stroke-miterlimit:10;}</style></defs><title>title</title><g id="Layer_2" data-name="Layer 2"><g id="Layer_1-2" data-name="Layer 1"><polyline class="cls-1" points="10.54 6.5 70.54 3.5 130.54 0.5"/><polyline class="cls-1" points="10.54 87.5 18.54 111.5 43.54 117.5 70.54 100.5 70.54 3.5"/><polygon class="cls-1" points="104.54 83.5 150.54 60.5 130.54 47.5 112.54 47.5 104.54 60.5 104.54 83.5"/><polyline class="cls-1" points="150.54 93.5 140.54 104.5 111.54 104.5 104.54 83.5"/><polyline class="cls-1" points="260.54 54.5 235.54 40.5 213.54 60.5 226.54 73.5 244.54 73.5 260.54 93.5 252.54 117.5 225.54 110.5 213.54 93.5"/><path class="cls-1" d="M291.54,87.5"/><polyline class="cls-1" points="287.54 55.5 291.54 87.5 298.54 109.5 320.54 117.5 345.54 104.5 345.54 83.5 338.54 47.5"/><line class="cls-1" x1="373.54" y1="47.5" x2="373.54" y2="117.5"/><line class="cls-1" x1="373.54" y1="0.5" x2="373.54" y2="21.5"/><polyline class="cls-1" points="466.54 47.5 466.54 93.5 476.54 124.5 515.54 117.5 527.54 47.5"/><polyline class="cls-1" points="544.54 47.5 544.54 65.5 544.54 117.5 563.54 51.5 597.54 47.5 612.54 72.5 605.54 124.5"/><polygon class="cls-1" points="61.54 175.5 10.54 189.5 0.54 235.5 30.54 271.5 81.54 271.5 61.54 175.5"/><polyline class="cls-1" points="120.54 264.5 85.54 245.5 71.54 223.5"/><line class="cls-1" x1="137.54" y1="168.5" x2="137.54" y2="271.5"/><polygon class="cls-1" points="213.54 219.5 202.54 192.5 176.54 192.5 150.54 205.5 150.54 239.5 156.54 264.5 170.54 271.5 198.54 271.5 213.54 258.5 213.54 219.5"/><polyline class="cls-1" points="189.24 270.78 213.54 258.5 213.54 278.5 213.54 315.5 191.54 339.5 157.54 339.5 137.54 298.5"/><polygon class="cls-1" points="270.54 199.5 251.54 192.5 227.54 192.5 219.54 205.5 224.54 258.5 236.54 264.5 270.54 264.5 280.54 243.5 270.54 199.5"/><line class="cls-1" x1="291.54" y1="192.5" x2="291.54" y2="271.5"/><polyline class="cls-1" points="337.54 209.5 329.54 198.5 311.54 198.5 287.54 219.5"/><line class="cls-1" x1="359.54" y1="198.5" x2="359.54" y2="271.5"/><line class="cls-1" x1="359.54" y1="155.5" x2="359.54" y2="175.5"/><line class="cls-1" x1="405.54" y1="165.5" x2="405.54" y2="271.5"/><line class="cls-1" x1="387.54" y1="208.5" x2="429.54" y2="208.5"/><polyline class="cls-1" points="443.54 165.5 443.54 223.5 443.54 281.5 454.54 208.5 466.54 198.5 482.54 198.5 492.54 208.5 492.54 286.5"/><polyline class="cls-1" points="515.54 208.5 515.54 271.5 522.54 218.5 535.54 208.5 558.54 280.5 578.54 208.5 592.54 208.5 602.54 286.5"/><polyline class="cls-1" points="627.54 243.5 672.54 213.5 650.54 198.5 634.54 198.5 618.54 208.5 612.54 228.5 623.54 264.5 655.54 271.5 680.54 258.5"/><polyline class="cls-1" points="130.54 364.5 114.54 339.5 71.54 329.5 48.54 346.5 40.54 371.5 49.54 395.5 71.54 413.5 127.54 425.5 137.54 446.5 137.54 468.5 120.54 483.5 96.54 483.5 27.54 458.5"/><line class="cls-1" x1="175.54" y1="363.5" x2="175.54" y2="483.5"/><line class="cls-1" x1="150.54" y1="406.5" x2="192.54" y2="406.5"/><polyline class="cls-1" points="231.54 406.5 231.54 439.5 243.54 483.5 260.54 483.5 291.54 478.5 302.54 454.5 302.54 406.5"/><polyline class="cls-1" points="334.54 466.5 369.54 472.5 396.54 458.5 405.54 434.5 387.54 398.5 365.54 394.5 345.54 400.5 341.01 456.3 340.15 466.84 339.28 477.5 332.54 560.5 332.54 400.5"/><line class="cls-1" x1="429.54" y1="394.5" x2="429.54" y2="483.5"/><line class="cls-1" x1="429.54" y1="339.5" x2="429.54" y2="363.5"/><polyline class="cls-1" points="516.54 406.5 497.54 394.5 478.54 394.5 457.54 400.5 449.54 432.5 449.54 468.5 483.54 487.5 527.54 477.5 527.54 299.5"/><polyline class="cls-1" points="573.54 439.5 637.54 394.5 621.54 383.5 591.54 383.5 564.54 398.5 559.54 416.5 566.54 449.5 590.54 472.5 618.54 472.5 653.54 439.5"/></g></g></svg>