<svg xmlns="http://www.w3.org/2000/svg" viewBox="0 0 200.09 52.22"><defs><style>.cls-1,.cls-2{fill:none;stroke:#000;stroke-miterlimit:10;}.cls-1{stroke-width:2px;}</style></defs><title>unfilm</title><g id="Layer_2" data-name="Layer 2"><g id="Layer_1-2" data-name="Layer 1"><polyline class="cls-1" points="1 23.5 1 35.5 4 41.5 10 43.5 12 24.5"/><polyline class="cls-1" points="15.5 24 15.5 44 18.5 24 25.5 24 28.5 44"/><polyline class="cls-1" points="57.5 11 55.5 4 49.5 2 43.5 5 43.5 44"/><path class="cls-1" d="M43.5,23h12"/><line class="cls-1" x1="60.5" x2="60.5" y2="44"/><line class="cls-1" x1="57.5" y1="44" x2="57.5" y2="26"/><polyline class="cls-1" points="67.5 23 67.5 44 71.5 23 78.5 23 80.5 44 83.5 24 87.5 24 89.5 44"/><polyline class="cls-1" points="108.5 24 108.5 44 112.5 24 116.5 23 119.5 26"/><polyline class="cls-1" points="121.5 35 133.5 26 129.5 23 124.5 23 121.5 29 121.5 40 127.5 42 134.5 35"/><line class="cls-2" x1="125.5" y1="16" x2="134.5" y2="8"/><polygon class="cls-1" points="147.5 26 144.5 23 139.5 23 137.5 28 137.5 40 142.5 44 147.5 42 147.5 26"/><line class="cls-1" x1="154.5" y1="42" x2="147.5" y2="26"/><line class="cls-1" x1="158.5" y1="2" x2="158.5" y2="44"/><line class="cls-1" x1="164.5" y1="22" x2="164.5" y2="44"/><line class="cls-2" x1="164.5" y1="12" x2="164.5" y2="16"/><polyline class="cls-1" points="180.5 26 178.5 23 174.5 22 169.5 28 180.5 33 180.5 39 176.5 42 167.5 42"/><polyline class="cls-1" points="187.5 33 198.5 26 194.5 22 187.5 22 185.5 26 188.5 39 193.5 42 198.5 35"/><line class="cls-2" x1="185.5" y1="16" x2="195.5" y2="8"/></g></g></svg>